<svg width="40" height="40" viewBox="0 0 40 40" fill="none" xmlns="http://www.w3.org/2000/svg">
<path d="M20 40C8.96 40 0 31.04 0 20C0 8.96 8.96 0 20 0C31.04 0 40 8.96 40 20C40 31.04 31.04 40 20 40Z" fill="#FED33C"/>
<path d="M20 37.5C10.34 37.5 2.5 29.66 2.5 20C2.5 10.34 10.34 2.5 20 2.5C29.66 2.5 37.5 10.34 37.5 20C37.5 29.66 29.66 37.5 20 37.5Z" fill="#FEB83C"/>
<path d="M7.35596 26.2468H10.0468V21.7351H12.0106L14.4218 26.2468H17.3924L14.6891 21.3001C16.137 20.6786 16.9387 19.4171 16.9387 17.677C16.9387 15.1477 15.267 13.5195 12.3773 13.5195H7.35596V26.2468ZM10.0468 19.5724V15.7195H11.8615C13.4151 15.7195 14.167 16.4093 14.167 17.677C14.167 18.9386 13.4151 19.5724 11.8739 19.5724H10.0468Z" fill="white"/>
<path d="M24.8703 29.4315H26.4701L26.4777 27.7034C29.715 27.4695 31.5713 25.6886 31.5789 23.1606C31.5713 20.4817 29.3603 19.2592 27.0361 18.7084L26.538 18.5801L26.5682 14.2712C27.7756 14.4825 28.5529 15.2069 28.6736 16.2936H31.3676C31.3223 13.8939 29.4358 12.1432 26.5833 11.8715L26.5909 10.1133H24.9911L24.9835 11.8715C22.1537 12.1583 20.1163 13.8939 20.1238 16.3917C20.1238 18.6103 21.701 19.8856 24.244 20.5421L24.9232 20.7156L24.893 25.2811C23.5422 25.0698 22.5688 24.3001 22.4707 22.9342H19.7163C19.822 25.764 21.7689 27.4468 24.8779 27.7034L24.8703 29.4315ZM26.4928 25.2811L26.5229 21.1382C27.8964 21.5382 28.7717 22.0664 28.7793 23.138C28.7717 24.2548 27.8737 25.0547 26.4928 25.2811ZM24.9383 18.1726C23.8969 17.8406 22.9461 17.2897 22.9612 16.2181C22.9687 15.2447 23.7007 14.4901 24.9684 14.2712L24.9383 18.1726Z" fill="white"/>
</svg>
