<svg width="40" height="40" viewBox="0 0 40 40" fill="none" xmlns="http://www.w3.org/2000/svg">
<path d="M20 40C8.96 40 0 31.04 0 20C0 8.96 8.96 0 20 0C31.04 0 40 8.96 40 20C40 31.04 31.04 40 20 40Z" fill="#FED33C"/>
<path d="M20 37.5C10.34 37.5 2.5 29.66 2.5 20C2.5 10.34 10.34 2.5 20 2.5C29.66 2.5 37.5 10.34 37.5 20C37.5 29.66 29.66 37.5 20 37.5Z" fill="#FEB83C"/>
<path d="M18.0656 17.9814C17.7114 15.0419 15.4866 13.3516 12.5409 13.3516C9.17889 13.3516 6.6123 15.7255 6.6123 19.8892C6.6123 24.0405 9.13539 26.4268 12.5409 26.4268C15.8035 26.4268 17.7735 24.258 18.0656 21.9151L15.3437 21.9027C15.0889 23.2637 14.02 24.0467 12.5844 24.0467C10.6517 24.0467 9.34047 22.6112 9.34047 19.8892C9.34047 17.2418 10.6331 15.7317 12.6031 15.7317C14.0759 15.7317 15.1386 16.5831 15.3437 17.9814H18.0656Z" fill="white"/>
<path d="M25.5998 29.4315H27.1996L27.2072 27.7034C30.4445 27.4695 32.3008 25.6886 32.3084 23.1606C32.3008 20.4817 30.0898 19.2592 27.7656 18.7084L27.2675 18.5801L27.2977 14.2712C28.5051 14.4825 29.2824 15.2069 29.4031 16.2936H32.0971C32.0518 13.8939 30.1653 12.1432 27.3128 11.8715L27.3204 10.1133H25.7206L25.713 11.8715C22.8832 12.1583 20.8457 13.8939 20.8533 16.3917C20.8533 18.6103 22.4304 19.8856 24.9735 20.5421L25.6527 20.7156L25.6225 25.2811C24.2717 25.0698 23.2983 24.3001 23.2002 22.9342H20.4458C20.5514 25.764 22.4984 27.4468 25.6074 27.7034L25.5998 29.4315ZM27.2223 25.2811L27.2524 21.1382C28.6258 21.5382 29.5012 22.0664 29.5087 23.138C29.5012 24.2548 28.6032 25.0547 27.2223 25.2811ZM25.6677 18.1726C24.6264 17.8406 23.6756 17.2897 23.6907 16.2181C23.6982 15.2447 24.4302 14.4901 25.6979 14.2712L25.6677 18.1726Z" fill="white"/>
</svg>
