<svg width="40" height="40" viewBox="0 0 40 40" fill="none" xmlns="http://www.w3.org/2000/svg">
<path d="M20 40C8.96 40 0 31.04 0 20C0 8.96 8.96 0 20 0C31.04 0 40 8.96 40 20C40 31.04 31.04 40 20 40Z" fill="#FED33C"/>
<path d="M20 37.5C10.34 37.5 2.5 29.66 2.5 20C2.5 10.34 10.34 2.5 20 2.5C29.66 2.5 37.5 10.34 37.5 20C37.5 29.66 29.66 37.5 20 37.5Z" fill="#FEB83C"/>
<path d="M16.6797 10H12.8906L17.5195 19.8047H14.1211V22.002H18.418V23.6719H14.1211V25.8691H18.418V30H22.0117V25.8691H26.1133V23.6719H22.0117V22.002H26.1133V19.8047H22.9883L27.627 10H23.8379L20.2637 18.3691L16.6797 10Z" fill="white"/>
</svg>
