<svg width="40" height="40" viewBox="0 0 40 40" fill="none" xmlns="http://www.w3.org/2000/svg">
<path d="M20 40C8.96 40 0 31.04 0 20C0 8.96 8.96 0 20 0C31.04 0 40 8.96 40 20C40 31.04 31.04 40 20 40Z" fill="#FED33C"/>
<path d="M20 37.5C10.34 37.5 2.5 29.66 2.5 20C2.5 10.34 10.34 2.5 20 2.5C29.66 2.5 37.5 10.34 37.5 20C37.5 29.66 29.66 37.5 20 37.5Z" fill="#FEB83C"/>
<path d="M24.668 16.9434H17.207C17.9102 14.2773 19.6094 12.9883 21.7969 12.9883C23.5059 12.9883 24.8242 13.7891 25.7617 14.5313L27.1289 11.6211C25.6836 10.4102 23.8867 9.72656 21.7969 9.72656C17.6465 9.72656 14.5117 12.3828 13.5547 16.9434H11.5332L10.7617 19.0234H13.2812C13.2617 19.3457 13.252 19.6777 13.252 20.0195C13.252 20.3418 13.2617 20.6641 13.2812 20.9766H11.5332L10.7617 23.0859H13.5547C14.5117 27.6367 17.6465 30.2734 21.7969 30.2734C23.8086 30.2734 25.6738 29.6582 27.0703 28.4473L25.6836 25.5371C24.834 26.2207 23.5156 27.0117 21.7969 27.0117C19.5996 27.0117 17.9102 25.752 17.207 23.0859H21.8555L22.8613 20.9766H16.8848C16.8652 20.6738 16.8555 20.3516 16.8555 20.0195C16.8555 19.6777 16.8652 19.3457 16.8848 19.0234H23.7207L24.668 16.9434Z" fill="white"/>
</svg>
