<svg width="40" height="40" viewBox="0 0 40 40" fill="none" xmlns="http://www.w3.org/2000/svg">
<path d="M20 40C8.96 40 0 31.04 0 20C0 8.96 8.96 0 20 0C31.04 0 40 8.96 40 20C40 31.04 31.04 40 20 40Z" fill="#FED33C"/>
<path d="M20 37.5C10.34 37.5 2.5 29.66 2.5 20C2.5 10.34 10.34 2.5 20 2.5C29.66 2.5 37.5 10.34 37.5 20C37.5 29.66 29.66 37.5 20 37.5Z" fill="#FEB83C"/>
<path d="M26.5303 30V26.9629H17.4189C18.0439 26.2305 18.2783 25.3027 18.2295 24.1602L18.1514 22.0996H22.5459V19.1406H18.0439L17.917 15.791C17.9072 13.6816 19.1865 12.7051 20.6318 12.7051C22.0479 12.7051 23.3467 13.4961 23.2197 15.2734L26.6084 15.5566C26.96 12.3242 24.499 9.72656 20.5439 9.72656C17.0967 9.72656 14.2354 11.8262 14.3818 15.791L14.499 19.1406H12.3604V22.0996H14.5967L14.6748 24.3164C14.7041 25.3906 14.499 26.8359 13.5322 26.9629H12.4287V30H26.5303Z" fill="white"/>
</svg>
