<svg width="40" height="40" viewBox="0 0 40 40" fill="none" xmlns="http://www.w3.org/2000/svg">
<path d="M20 40C8.96 40 0 31.04 0 20C0 8.96 8.96 0 20 0C31.04 0 40 8.96 40 20C40 31.04 31.04 40 20 40Z" fill="#FED33C"/>
<path d="M20 37.5C10.34 37.5 2.5 29.66 2.5 20C2.5 10.34 10.34 2.5 20 2.5C29.66 2.5 37.5 10.34 37.5 20C37.5 29.66 29.66 37.5 20 37.5Z" fill="#FEB83C"/>
<path d="M23.3984 20.8496V15.8691C24.5703 16.7773 25.2441 18.3984 25.2441 20.8496H28.6914C28.7012 16.582 26.6211 13.6035 23.3984 12.4707V10H21.1523V12.002C20.8789 11.9824 20.5957 11.9727 20.3125 11.9727C20.0293 11.9727 19.7559 11.9824 19.4824 12.002V10H17.2461V12.4512C14.0137 13.5449 11.9434 16.4453 11.9336 20.5273C11.9434 23.1445 12.8125 25.4102 14.4434 26.9434L14.3945 27.0898H11.9824V30H28.5742V27.0898H20.9766C17.1387 27.0898 15.4199 24.5508 15.4102 20.7422C15.4199 18.3203 16.0938 16.748 17.2461 15.8594V20.8496H19.4824V14.9902C19.7461 14.9609 20.0293 14.9414 20.3125 14.9414C20.6055 14.9414 20.8789 14.9609 21.1523 14.9902V20.8496H23.3984Z" fill="white"/>
</svg>
