<svg width="40" height="40" viewBox="0 0 40 40" fill="none" xmlns="http://www.w3.org/2000/svg">
<path d="M20 40C8.96 40 0 31.04 0 20C0 8.96 8.96 0 20 0C31.04 0 40 8.96 40 20C40 31.04 31.04 40 20 40Z" fill="#FED33C"/>
<path d="M20 37.5C10.34 37.5 2.5 29.66 2.5 20C2.5 10.34 10.34 2.5 20 2.5C29.66 2.5 37.5 10.34 37.5 20C37.5 29.66 29.66 37.5 20 37.5Z" fill="#FEB83C"/>
<path d="M27.5112 14.8828H24.7378C24.6011 14.0234 24.2983 13.252 23.8394 12.5879L26.8179 12.5977L27.5308 10H14.6206L13.8589 13.0176H17.5308C19.4155 13.0176 20.519 13.7207 20.9683 14.8828H14.562L13.8589 17.4414H21.0659C20.6558 18.7891 19.4546 19.6094 17.5308 19.6094H14.1519L14.1616 21.7773L20.9976 30H25.0698V29.8242L18.8979 22.2559C22.5405 21.7773 24.3081 20.0195 24.728 17.4414H26.8179L27.5112 14.8828Z" fill="white"/>
</svg>
