<svg width="40" height="40" viewBox="0 0 40 40" fill="none" xmlns="http://www.w3.org/2000/svg">
<path d="M20 40C8.96 40 0 31.04 0 20C0 8.96 8.96 0 20 0C31.04 0 40 8.96 40 20C40 31.04 31.04 40 20 40Z" fill="#FED33C"/>
<path d="M20 37.5C10.34 37.5 2.5 29.66 2.5 20C2.5 10.34 10.34 2.5 20 2.5C29.66 2.5 37.5 10.34 37.5 20C37.5 29.66 29.66 37.5 20 37.5Z" fill="#FEB83C"/>
<path d="M31.9403 15.9908H30.582L32.038 10.5664H28.9485L27.5369 15.9908H23.1957L21.7575 10.5664H18.5969L17.1587 15.9908H12.8175L11.4059 10.5664H8.31641L9.77237 15.9908H8.41406V17.9439H10.2962L10.7667 19.7106H8.41406V21.6637H11.2905L13.1903 28.7482H16.555L18.5348 21.6637H21.8285L23.7994 28.7482H27.1641L29.0639 21.6637H31.9403V19.7106H29.5877L30.0582 17.9439H31.9403V15.9908ZM24.19 19.7106L23.7195 17.9439H27.0309L26.5781 19.7106H24.19ZM13.3235 17.9439H16.6349L16.1644 19.7106H13.7852L13.3235 17.9439ZM19.0764 19.7106L19.5735 17.9439H20.7987L21.2869 19.7106H19.0764ZM26.0632 21.6637L25.4773 23.9364H25.3086L24.7049 21.6637H26.0632ZM14.2912 21.6637H15.6495L15.0458 23.9276H14.8771L14.2912 21.6637Z" fill="white"/>
</svg>
