<svg width="40" height="40" viewBox="0 0 40 40" fill="none" xmlns="http://www.w3.org/2000/svg">
<path d="M20 40C8.96 40 0 31.04 0 20C0 8.96 8.96 0 20 0C31.04 0 40 8.96 40 20C40 31.04 31.04 40 20 40Z" fill="#FED33C"/>
<path d="M20 37.5C10.34 37.5 2.5 29.66 2.5 20C2.5 10.34 10.34 2.5 20 2.5C29.66 2.5 37.5 10.34 37.5 20C37.5 29.66 29.66 37.5 20 37.5Z" fill="#FEB83C"/>
<path d="M28.3105 14.5801H12.3633V17.5879H18.4961V30H22.0996V17.5879H28.3105V14.5801ZM28.3105 10H12.3633V13.0078H28.3105V10Z" fill="white"/>
</svg>
