<svg width="40" height="40" viewBox="0 0 40 40" fill="none" xmlns="http://www.w3.org/2000/svg">
<path d="M20 40C8.96 40 0 31.04 0 20C0 8.96 8.96 0 20 0C31.04 0 40 8.96 40 20C40 31.04 31.04 40 20 40Z" fill="#FED33C"/>
<path d="M20 37.5C10.34 37.5 2.5 29.66 2.5 20C2.5 10.34 10.34 2.5 20 2.5C29.66 2.5 37.5 10.34 37.5 20C37.5 29.66 29.66 37.5 20 37.5Z" fill="#FEB83C"/>
<path d="M6.10596 13.5195V26.2468H8.71604V17.9318H8.82169L12.1154 26.1847H13.8927L17.1864 17.9629H17.292V26.2468H19.9021V13.5195H16.5836L13.0786 22.0707H12.9295L9.42449 13.5195H6.10596Z" fill="white"/>
<path d="M27.3703 29.4315H28.9701L28.9777 27.7034C32.215 27.4695 34.0713 25.6886 34.0789 23.1606C34.0713 20.4817 31.8603 19.2592 29.5361 18.7084L29.038 18.5801L29.0682 14.2712C30.2756 14.4825 31.0529 15.2069 31.1736 16.2936H33.8676C33.8223 13.8939 31.9358 12.1432 29.0833 11.8715L29.0909 10.1133H27.4911L27.4835 11.8715C24.6537 12.1583 22.6163 13.8939 22.6238 16.3917C22.6238 18.6103 24.201 19.8856 26.744 20.5421L27.4232 20.7156L27.393 25.2811C26.0422 25.0698 25.0688 24.3001 24.9707 22.9342H22.2163C22.322 25.764 24.2689 27.4468 27.3779 27.7034L27.3703 29.4315ZM28.9928 25.2811L29.0229 21.1382C30.3964 21.5382 31.2717 22.0664 31.2793 23.138C31.2717 24.2548 30.3737 25.0547 28.9928 25.2811ZM27.4383 18.1726C26.3969 17.8406 25.4461 17.2897 25.4612 16.2181C25.4687 15.2447 26.2007 14.4901 27.4684 14.2712L27.4383 18.1726Z" fill="white"/>
</svg>
