<svg width="40" height="40" viewBox="0 0 40 40" fill="none" xmlns="http://www.w3.org/2000/svg">
<path d="M20 40C8.96 40 0 31.04 0 20C0 8.96 8.96 0 20 0C31.04 0 40 8.96 40 20C40 31.04 31.04 40 20 40Z" fill="#FED33C"/>
<path d="M20 37.5C10.34 37.5 2.5 29.66 2.5 20C2.5 10.34 10.34 2.5 20 2.5C29.66 2.5 37.5 10.34 37.5 20C37.5 29.66 29.66 37.5 20 37.5Z" fill="#FEB83C"/>
<path d="M9.32373 28.2696H12.6897V23.4717L13.9171 22.1606L18.2874 28.2696H22.3135L16.4556 20.1521L21.9881 13.9873H18.0549L12.9222 19.7244H12.6897V9.22656H9.32373V28.2696Z" fill="white"/>
<path d="M24.2313 28.2696H27.5973V19.8732C27.5973 18.06 28.9642 16.7768 30.8146 16.7768C31.3818 16.7768 32.0884 16.8791 32.3767 16.9721V13.8757C32.0698 13.82 31.5398 13.7828 31.1679 13.7828C29.5314 13.7828 28.1645 14.7126 27.6438 16.3677H27.4951V13.9873H24.2313V28.2696Z" fill="white"/>
</svg>
