<svg width="40" height="40" viewBox="0 0 40 40" fill="none" xmlns="http://www.w3.org/2000/svg">
<path d="M20 40C8.96 40 0 31.04 0 20C0 8.96 8.96 0 20 0C31.04 0 40 8.96 40 20C40 31.04 31.04 40 20 40Z" fill="#FED33C"/>
<path d="M20 37.5C10.34 37.5 2.5 29.66 2.5 20C2.5 10.34 10.34 2.5 20 2.5C29.66 2.5 37.5 10.34 37.5 20C37.5 29.66 29.66 37.5 20 37.5Z" fill="#FEB83C"/>
<path d="M32.8496 12.9258H30.5688L26.4673 28.1637H28.748L32.8496 12.9258Z" fill="white"/>
<path d="M20.3418 15.498H23.8281C23.7598 12.1191 20.8789 9.72656 16.6211 9.72656C12.4219 9.72656 9.26758 12.0898 9.27734 15.625C9.27734 18.4961 11.3184 20.1465 14.6094 20.9961L16.8848 21.582C19.043 22.1289 20.4688 22.8027 20.4785 24.3555C20.4688 26.0645 18.8477 27.207 16.4844 27.207C14.2188 27.207 12.4609 26.1914 12.3145 24.0918H8.75C8.89648 28.0664 11.8555 30.3027 16.5137 30.3027C21.3086 30.3027 24.0918 27.9102 24.1016 24.3848C24.0918 20.918 21.2305 19.3359 18.2227 18.623L16.3477 18.1543C14.707 17.7637 12.9297 17.0703 12.9492 15.4004C12.959 13.8965 14.3066 12.793 16.5723 12.793C18.7305 12.793 20.1562 13.7988 20.3418 15.498Z" fill="white"/>
</svg>
