<svg width="40" height="40" viewBox="0 0 40 40" fill="none" xmlns="http://www.w3.org/2000/svg">
<path d="M20 40C8.96 40 0 31.04 0 20C0 8.96 8.96 0 20 0C31.04 0 40 8.96 40 20C40 31.04 31.04 40 20 40Z" fill="#FED33C"/>
<path d="M20 37.5C10.34 37.5 2.5 29.66 2.5 20C2.5 10.34 10.34 2.5 20 2.5C29.66 2.5 37.5 10.34 37.5 20C37.5 29.66 29.66 37.5 20 37.5Z" fill="#FEB83C"/>
<path d="M9.12109 28.75H21.4355V25.8203H13.8184V25.6934L21.1816 16.1621V13.75H9.375V16.6797H16.8555V16.8066L9.12109 26.5039V28.75Z" fill="white"/>
<path d="M30.2563 15.9082L28.2935 16.5723V8.75H24.7583V17.7539L22.7954 18.418V20.5273L24.7583 19.8633V28.75H28.2935V18.6816L30.2563 18.0176V15.9082Z" fill="white"/>
</svg>
