<svg width="40" height="40" viewBox="0 0 40 40" fill="none" xmlns="http://www.w3.org/2000/svg">
<path d="M20 40C8.96 40 0 31.04 0 20C0 8.96 8.96 0 20 0C31.04 0 40 8.96 40 20C40 31.04 31.04 40 20 40Z" fill="#FED33C"/>
<path d="M20 37.5C10.34 37.5 2.5 29.66 2.5 20C2.5 10.34 10.34 2.5 20 2.5C29.66 2.5 37.5 10.34 37.5 20C37.5 29.66 29.66 37.5 20 37.5Z" fill="#FEB83C"/>
<path d="M21.6699 22.4707C26.2598 22.4707 28.8867 19.9414 28.8867 16.2793C28.8867 12.7441 26.3184 10 21.6699 10H14.1309V19.4922H11.1914V22.4707H14.1309V23.9551H11.1914V26.9336H14.1309V30H17.7441V26.9336H22.1289V23.9551H17.7441V22.4707H21.6699ZM17.7441 19.4922V13.0078H21.6699C24.1016 13.0078 25.2734 14.4336 25.2637 16.3086C25.2734 18.2227 24.1211 19.4922 21.5918 19.4922H17.7441Z" fill="white"/>
</svg>
