<svg width="40" height="40" viewBox="0 0 40 40" fill="none" xmlns="http://www.w3.org/2000/svg">
<path d="M20 40C8.96 40 0 31.04 0 20C0 8.96 8.96 0 20 0C31.04 0 40 8.96 40 20C40 31.04 31.04 40 20 40Z" fill="#FED33C"/>
<path d="M20 37.5C10.34 37.5 2.5 29.66 2.5 20C2.5 10.34 10.34 2.5 20 2.5C29.66 2.5 37.5 10.34 37.5 20C37.5 29.66 29.66 37.5 20 37.5Z" fill="#FEB83C"/>
<path d="M13.2227 30H21.3184C25.8984 30 28.1445 27.666 28.1445 24.5508C28.1445 21.5234 25.9961 19.7461 23.8672 19.6387V19.4434C25.8203 18.9844 27.3633 17.6172 27.3633 15.1855C27.3633 12.207 25.2148 10 20.8789 10H13.2227V30ZM16.8457 26.9727V21.1133H20.8398C23.0762 21.1133 24.4629 22.4805 24.4629 24.2676C24.4629 25.8594 23.3691 26.9727 20.7422 26.9727H16.8457ZM16.8457 18.5059V12.9883H20.5078C22.6367 12.9883 23.7402 14.1113 23.7402 15.6543C23.7402 17.4121 22.3145 18.5059 20.4297 18.5059H16.8457Z" fill="white"/>
<rect x="18.7031" y="7.5" width="2.59408" height="25" fill="white"/>
</svg>
