<svg width="40" height="40" viewBox="0 0 40 40" fill="none" xmlns="http://www.w3.org/2000/svg">
<path d="M20 40C8.96 40 0 31.04 0 20C0 8.96 8.96 0 20 0C31.04 0 40 8.96 40 20C40 31.04 31.04 40 20 40Z" fill="#FED33C"/>
<path d="M20 37.5C10.34 37.5 2.5 29.66 2.5 20C2.5 10.34 10.34 2.5 20 2.5C29.66 2.5 37.5 10.34 37.5 20C37.5 29.66 29.66 37.5 20 37.5Z" fill="#FEB83C"/>
<path d="M19.9316 10H16.3379V14.0625L13.9355 14.9121V17.6465L16.3379 16.7969V18.5547L13.9355 19.3945V22.1289L16.3379 21.2793V30.0586C17.1582 30.1855 18.4375 30.2734 19.8633 30.2734C24.8438 30.2734 28.2715 26.9531 28.2715 20.8594H24.6289C24.6289 25.3223 22.7441 27.1973 19.9316 27.2266V20.0195L23.3887 18.7988V16.0742L19.9316 17.2852V15.5371L23.3887 14.3164V11.5723L19.9316 12.793V10Z" fill="white"/>
</svg>
