<svg width="40" height="40" viewBox="0 0 40 40" fill="none" xmlns="http://www.w3.org/2000/svg">
<path d="M20 40C8.96 40 0 31.04 0 20C0 8.96 8.96 0 20 0C31.04 0 40 8.96 40 20C40 31.04 31.04 40 20 40Z" fill="#FED33C"/>
<path d="M20 37.5C10.34 37.5 2.5 29.66 2.5 20C2.5 10.34 10.34 2.5 20 2.5C29.66 2.5 37.5 10.34 37.5 20C37.5 29.66 29.66 37.5 20 37.5Z" fill="#FEB83C"/>
<path d="M27.3633 23.2324V20.6934H12.1582V23.2324H14.0234C13.5254 23.877 13.2227 24.6875 13.2129 25.4883C13.2227 28.5059 15.5469 30.2734 19.7852 30.2734C24.1504 30.2734 26.4258 28.623 26.5723 24.9707H22.832C22.7734 26.6309 21.5625 27.2656 19.7852 27.2656C17.9688 27.2656 16.8945 26.5332 16.8848 25.2734C16.8945 24.5508 17.1875 23.8379 17.8125 23.2324H27.3633ZM19.8633 12.7344C21.582 12.7344 22.4512 13.4473 22.4414 14.541C22.4512 15.293 22.0996 15.9277 21.543 16.4941H12.1582V19.082H27.3633V16.4941H25.3125C25.7617 15.8594 26.0449 15.1172 26.0352 14.3262C26.0449 11.4844 23.8086 9.72656 19.8242 9.72656C15.5566 9.72656 13.6133 11.7773 13.457 14.9023H17.168C17.207 13.5449 18.0566 12.7344 19.8633 12.7344Z" fill="white"/>
</svg>
