<svg width="40" height="40" viewBox="0 0 40 40" fill="none" xmlns="http://www.w3.org/2000/svg">
<path d="M20 40C8.96 40 0 31.04 0 20C0 8.96 8.96 0 20 0C31.04 0 40 8.96 40 20C40 31.04 31.04 40 20 40Z" fill="#FED33C"/>
<path d="M20 37.5C10.34 37.5 2.5 29.66 2.5 20C2.5 10.34 10.34 2.5 20 2.5C29.66 2.5 37.5 10.34 37.5 20C37.5 29.66 29.66 37.5 20 37.5Z" fill="#FEB83C"/>
<path d="M19.1699 32.5H21.2402L21.25 30.2637C25.4395 29.9609 27.8418 27.6563 27.8516 24.3848C27.8418 20.918 24.9805 19.3359 21.9727 18.623L21.3281 18.457L21.3672 12.8809C22.9297 13.1543 23.9355 14.0918 24.0918 15.498H27.5781C27.5195 12.3926 25.0781 10.127 21.3867 9.77539L21.3965 7.5H19.3262L19.3164 9.77539C15.6543 10.1465 13.0176 12.3926 13.0273 15.625C13.0273 18.4961 15.0684 20.1465 18.3594 20.9961L19.2383 21.2207L19.1992 27.1289C17.4512 26.8555 16.1914 25.8594 16.0645 24.0918H12.5C12.6367 27.7539 15.1562 29.9316 19.1797 30.2637L19.1699 32.5ZM21.2695 27.1289L21.3086 21.7676C23.0859 22.2852 24.2188 22.9688 24.2285 24.3555C24.2188 25.8008 23.0566 26.8359 21.2695 27.1289ZM19.2578 17.9297C17.9102 17.5 16.6797 16.7871 16.6992 15.4004C16.709 14.1406 17.6562 13.1641 19.2969 12.8809L19.2578 17.9297Z" fill="white"/>
</svg>
