<svg width="200" height="200" viewBox="0 0 200 200" fill="none" xmlns="http://www.w3.org/2000/svg">
<path d="M100 200C44.8 200 0 155.2 0 100C0 44.8 44.8 0 100 0C155.2 0 200 44.8 200 100C200 155.2 155.2 200 100 200Z" fill="#BBBBBB"/>
<path d="M80.8972 48.668C77.5432 52.925 71.9962 61.052 66.5782 69.437C55.6132 86.852 52.3882 95.495 52.3882 107.879C52.3882 127.616 63.6112 142.451 78.4462 142.451C93.2812 142.451 104.633 128.261 104.633 109.556C104.633 92.528 94.1842 78.854 81.2842 78.854C80.7682 78.854 80.1232 78.854 79.2202 78.983C84.7672 68.792 92.7652 57.053 99.8602 48.668H80.8972ZM78.4462 94.979C83.0902 94.979 85.6702 100.268 85.6702 109.814C85.6702 119.36 83.0902 124.778 78.5752 124.778C73.9312 124.778 71.3512 119.489 71.3512 109.556C71.3512 100.268 73.9312 94.979 78.4462 94.979Z" fill="white"/>
<path d="M125.845 102.074V116.393H143.002V102.074H156.805V84.917H143.002V71.243H125.845V84.917H112.042V102.074H125.845Z" fill="white"/>
</svg>
