<svg width="200" height="200" viewBox="0 0 200 200" fill="none" xmlns="http://www.w3.org/2000/svg">
<path d="M100 200C44.8 200 0 155.2 0 100C0 44.8 44.8 0 100 0C155.2 0 200 44.8 200 100C200 155.2 155.2 200 100 200Z" fill="#BBBBBB"/>
<path d="M101.409 28.8984C99.4588 31.3734 96.2338 36.0984 93.0838 40.9734C86.7088 51.0984 84.8338 56.1234 84.8338 63.3234C84.8338 74.7984 91.3588 83.4234 99.9838 83.4234C108.609 83.4234 115.209 75.1734 115.209 64.2984C115.209 54.3984 109.134 46.4484 101.634 46.4484C101.334 46.4484 100.959 46.4484 100.434 46.5234C103.659 40.5984 108.309 33.7734 112.434 28.8984H101.409ZM99.9838 55.8234C102.684 55.8234 104.184 58.8984 104.184 64.4484C104.184 69.9984 102.684 73.1484 100.059 73.1484C97.3588 73.1484 95.8588 70.0734 95.8588 64.2984C95.8588 58.8984 97.3588 55.8234 99.9838 55.8234Z" fill="white"/>
<path d="M35.5225 151.998H46.5475L49.5475 131.973L58.7725 154.023L67.9975 131.973L71.7475 151.998H82.7725L71.2225 97.0234L59.1475 128.973L47.0725 97.0234L35.5225 151.998Z" fill="white"/>
<path d="M125.487 151.998L104.262 97.0234L82.5873 151.998H94.0623L96.8373 143.748H110.562L113.412 151.998H125.487ZM108.087 134.973H99.6123L103.812 122.223L108.087 134.973Z" fill="white"/>
<path d="M135.819 151.998L144.594 134.673L153.369 151.998H165.369L150.444 123.648L163.869 98.8984H152.319L145.119 113.373L137.844 98.8984H125.844L139.119 124.248L124.344 151.998H135.819Z" fill="white"/>
</svg>
