<svg width="200" height="200" viewBox="0 0 200 200" fill="none" xmlns="http://www.w3.org/2000/svg">
<path d="M100 200C44.8 200 0 155.2 0 100C0 44.8 44.8 0 100 0C155.2 0 200 44.8 200 100C200 155.2 155.2 200 100 200Z" fill="#BBBBBB"/>
<path d="M98.6338 82.0016C100.434 79.6016 103.734 74.8766 106.884 69.9266C113.334 59.7266 115.134 54.8516 115.134 47.5766C115.134 36.1766 108.609 27.4766 99.9838 27.4766C91.3588 27.4766 84.7588 35.7266 84.7588 46.6766C84.7588 56.5016 90.8338 64.4516 98.3338 64.4516C98.6338 64.4516 99.0088 64.4516 99.5338 64.3766C96.3088 70.3016 91.7338 77.0516 87.5338 82.0016H98.6338ZM99.9838 37.7516C102.609 37.7516 104.109 40.9016 104.109 46.6016C104.109 52.0016 102.609 55.0766 99.9838 55.0766C97.2838 55.0766 95.7838 52.0016 95.7838 46.4516C95.7838 40.9016 97.2838 37.7516 99.9838 37.7516Z" fill="white"/>
<path d="M35.5225 152.002H46.5475L49.5475 131.977L58.7725 154.027L67.9975 131.977L71.7475 152.002H82.7725L71.2225 97.0266L59.1475 128.977L47.0725 97.0266L35.5225 152.002Z" fill="white"/>
<path d="M125.487 152.002L104.262 97.0266L82.5873 152.002H94.0623L96.8373 143.752H110.562L113.412 152.002H125.487ZM108.087 134.977H99.6123L103.812 122.227L108.087 134.977Z" fill="white"/>
<path d="M135.819 152.002L144.594 134.677L153.369 152.002H165.369L150.444 123.652L163.869 98.9016H152.319L145.119 113.377L137.844 98.9016H125.844L139.119 124.252L124.344 152.002H135.819Z" fill="white"/>
</svg>
