<svg width="200" height="200" viewBox="0 0 200 200" fill="none" xmlns="http://www.w3.org/2000/svg">
<path d="M100 200C44.8 200 0 155.2 0 100C0 44.8 44.8 0 100 0C155.2 0 200 44.8 200 100C200 155.2 155.2 200 100 200Z" fill="#BBBBBB"/>
<path d="M86.679 121.999L64.0389 63.3594L40.9189 121.999H53.1589L56.1189 113.199H70.7589L73.7989 121.999H86.679ZM68.1189 103.839H59.0789L63.5589 90.2394L68.1189 103.839Z" fill="white"/>
<path d="M104.686 76.5594C94.4458 76.5594 86.6858 86.6394 86.6858 99.9994C86.6858 113.199 94.4458 123.279 104.606 123.279C114.846 123.279 122.686 113.119 122.686 99.9194C122.686 86.6394 114.926 76.5594 104.686 76.5594ZM104.606 87.3594C108.926 87.3594 111.406 91.9994 111.406 99.9194C111.406 107.679 108.846 112.399 104.686 112.399C100.366 112.399 97.8858 107.759 97.8858 99.6794C97.8858 92.0794 100.446 87.3594 104.606 87.3594Z" fill="white"/>
<path d="M129.41 121.999H141.65V100.319H155.17V89.6794H141.65V76.5594H156.29V65.3594H129.41V121.999Z" fill="white"/>
</svg>
