<svg width="200" height="200" viewBox="0 0 200 200" fill="none" xmlns="http://www.w3.org/2000/svg">
<path d="M100 200C44.8 200 0 155.2 0 100C0 44.8 44.8 0 100 0C155.2 0 200 44.8 200 100C200 155.2 155.2 200 100 200Z" fill="#BBBBBB"/>
<path d="M21.832 117.002H29.272C39.172 117.002 44.692 112.322 44.692 103.922C44.692 99.4817 43.372 96.6017 40.252 94.2617C42.892 92.1017 43.912 89.8217 43.912 86.0417C43.912 82.3217 42.472 79.0817 39.892 77.1017C37.372 75.1817 34.552 74.5217 29.272 74.5217H21.832V117.002ZM30.652 82.9217H31.192C33.772 82.9217 35.152 84.4817 35.152 87.5417C35.152 90.6017 33.832 92.1017 31.072 92.1017H30.652V82.9217ZM30.652 99.3017C34.312 99.3017 35.692 100.562 35.692 103.982C35.692 107.402 34.312 108.722 30.652 108.722V99.3017Z" fill="white"/>
<path d="M73.65 82.9217L65.61 83.8817C63.63 83.1617 62.37 82.9217 60.81 82.9217C53.07 82.9217 48.09 89.9417 48.09 100.862C48.09 111.002 52.47 117.962 58.89 117.962C61.11 117.962 62.91 117.242 65.25 115.382L65.73 117.962L74.07 117.002C73.77 114.122 73.65 111.482 73.65 106.082V82.9217ZM64.83 107.822C63.21 109.262 62.13 109.802 60.81 109.802C57.99 109.802 56.49 106.682 56.49 100.802C56.49 94.3217 58.23 91.0217 61.53 91.0217C62.67 91.0217 63.45 91.3217 64.83 92.2217V107.822Z" fill="white"/>
<path d="M103.767 73.5617L94.9472 74.5217V83.8817C93.2072 83.1617 92.1272 82.9217 90.6272 82.9217C83.1872 82.9217 78.2072 90.1217 78.2072 100.862C78.2072 111.002 82.5872 117.962 89.0072 117.962C91.2272 117.962 93.0272 117.242 95.3672 115.382L95.8472 117.962L104.187 117.002C103.887 114.122 103.767 111.482 103.767 106.082V73.5617ZM94.9472 107.822C93.3272 109.262 92.2472 109.802 90.9272 109.802C88.1072 109.802 86.6072 106.682 86.6072 100.802C86.6072 94.3217 88.3472 91.0217 91.6472 91.0217C92.7872 91.0217 93.5672 91.3217 94.9472 92.2217V107.822Z" fill="white"/>
<path d="M125.48 83.8817V99.9017C125.48 103.562 125.24 105.962 124.7 107.042C123.92 108.722 122.42 109.862 120.92 109.862C118.94 109.862 118.28 108.542 118.28 104.522V82.9217L109.88 83.8817V106.322C109.88 114.362 112.16 117.962 117.14 117.962C120.26 117.962 122.36 116.762 125.48 113.282V117.962L133.88 117.002V82.9217L125.48 83.8817Z" fill="white"/>
<path d="M155.602 118.322C155.602 123.722 154.462 125.222 150.442 125.222C147.142 125.222 144.442 124.202 140.602 121.442L140.662 130.082C144.622 132.182 147.802 133.022 151.462 133.022C155.422 133.022 158.962 131.342 161.242 128.402C163.282 125.702 164.002 122.462 164.002 115.922V82.9217L155.962 83.8817C153.982 83.1617 152.722 82.9217 151.162 82.9217C143.422 82.9217 138.442 89.9417 138.442 100.862C138.442 111.002 142.822 117.962 149.242 117.962C151.462 117.962 153.262 117.242 155.602 115.382V118.322ZM155.182 107.822C153.562 109.262 152.482 109.802 151.162 109.802C148.342 109.802 146.842 106.682 146.842 100.802C146.842 94.3217 148.582 91.0217 151.882 91.0217C153.022 91.0217 153.802 91.3217 155.182 92.2217V107.822Z" fill="white"/>
<path d="M178.639 117.002V82.9217L170.239 83.8817V117.002H178.639ZM174.439 70.2617C171.799 70.2617 169.699 72.3617 169.699 75.0017C169.699 77.5817 171.859 79.7417 174.439 79.7417C177.079 79.7417 179.179 77.6417 179.179 74.9417C179.179 72.3017 177.079 70.2617 174.439 70.2617Z" fill="white"/>
</svg>
