<svg width="200" height="200" viewBox="0 0 200 200" fill="none" xmlns="http://www.w3.org/2000/svg">
<path d="M100 200C44.8 200 0 155.2 0 100C0 44.8 44.8 0 100 0C155.2 0 200 44.8 200 100C200 155.2 155.2 200 100 200Z" fill="#BBBBBB"/>
<path d="M62.2748 68.1598C57.8748 65.1198 54.2748 63.8398 50.1948 63.8398C37.4748 63.8398 27.6348 76.8798 27.6348 93.7598C27.6348 110.4 37.4748 123.52 49.9548 123.52C53.7948 123.52 57.3148 122.4 61.2348 119.84L62.6748 106.48C57.7948 110.88 55.6348 112 51.7948 112C44.8348 112 40.4348 104.88 40.4348 93.5998C40.4348 82.7198 44.5948 75.8398 51.2348 75.8398C54.3548 75.8398 56.9948 77.2798 60.8348 80.9598L62.2748 68.1598Z" fill="white"/>
<path d="M99.9848 76.5598L89.2648 77.8398C86.6248 76.8798 84.9448 76.5598 82.8648 76.5598C72.5448 76.5598 65.9048 85.9198 65.9048 100.48C65.9048 114 71.7448 123.28 80.3048 123.28C83.2648 123.28 85.6648 122.32 88.7848 119.84L89.4248 123.28L100.545 122C100.145 118.16 99.9848 114.64 99.9848 107.44V76.5598ZM88.2248 109.76C86.0648 111.68 84.6248 112.4 82.8648 112.4C79.1048 112.4 77.1048 108.24 77.1048 100.4C77.1048 91.7598 79.4248 87.3598 83.8248 87.3598C85.3448 87.3598 86.3848 87.7598 88.2248 88.9598V109.76Z" fill="white"/>
<path d="M107.901 119.76C111.581 122.4 115.021 123.52 119.101 123.52C126.941 123.52 132.381 117.6 132.381 109.2C132.381 103.68 130.301 100.24 124.941 96.7998L122.141 95.0398C119.341 93.1998 118.781 92.4798 118.781 90.6398C118.781 88.3998 120.301 86.8798 122.541 86.8798C124.381 86.8798 126.141 87.5998 129.021 89.5198V78.8798C125.421 76.9598 123.421 76.3198 120.621 76.3198C113.021 76.3198 107.581 82.1598 107.581 90.2398C107.581 95.3598 109.421 98.4798 114.221 101.52L117.741 103.76C120.381 105.44 121.181 106.56 121.181 108.72C121.181 111.28 119.581 112.96 117.021 112.96C114.461 112.96 111.741 111.6 107.341 108.16L107.901 119.76Z" fill="white"/>
<path d="M150.21 122V100.64C150.21 95.6798 150.53 92.5598 151.25 91.1198C152.29 88.8798 154.29 87.3598 156.29 87.3598C158.93 87.3598 159.81 89.1198 159.81 94.4798V122H171.01V92.0798C171.01 81.3598 168.05 76.5598 161.33 76.5598C157.17 76.5598 154.37 78.1598 150.21 82.7998V64.0798L139.01 65.3598V122H150.21Z" fill="white"/>
</svg>
