<svg width="200" height="200" viewBox="0 0 200 200" fill="none" xmlns="http://www.w3.org/2000/svg">
<path d="M100 200C44.8 200 0 155.2 0 100C0 44.8 44.8 0 100 0C155.2 0 200 44.8 200 100C200 155.2 155.2 200 100 200Z" fill="#BBBBBB"/>
<path d="M41.2451 121.998H53.4851V100.318H67.0051V89.6781H53.4851V76.5581H68.1251V65.3581H41.2451V121.998Z" fill="white"/>
<path d="M105.726 76.5581L95.0064 77.8381C92.3664 76.8781 90.6864 76.5581 88.6064 76.5581C78.2864 76.5581 71.6464 85.9181 71.6464 100.478C71.6464 113.998 77.4864 123.278 86.0464 123.278C89.0064 123.278 91.4064 122.318 94.5264 119.838L95.1664 123.278L106.286 121.998C105.886 118.158 105.726 114.638 105.726 107.438V76.5581ZM93.9664 109.758C91.8064 111.678 90.3664 112.398 88.6064 112.398C84.8464 112.398 82.8464 108.238 82.8464 100.398C82.8464 91.7581 85.1664 87.3581 89.5664 87.3581C91.0864 87.3581 92.1264 87.7581 93.9664 88.9581V109.758Z" fill="white"/>
<path d="M113.643 119.758C117.323 122.398 120.763 123.518 124.843 123.518C132.683 123.518 138.123 117.598 138.123 109.198C138.123 103.678 136.043 100.238 130.683 96.7981L127.883 95.0381C125.083 93.1981 124.523 92.4781 124.523 90.6381C124.523 88.3981 126.043 86.8781 128.283 86.8781C130.123 86.8781 131.883 87.5981 134.763 89.5181V78.8781C131.163 76.9581 129.163 76.3181 126.363 76.3181C118.763 76.3181 113.323 82.1581 113.323 90.2381C113.323 95.3581 115.163 98.4781 119.963 101.518L123.483 103.758C126.123 105.438 126.923 106.558 126.923 108.718C126.923 111.278 125.323 112.958 122.763 112.958C120.203 112.958 117.483 111.598 113.083 108.158L113.643 119.758Z" fill="white"/>
<path d="M163.079 111.038C161.559 111.198 160.919 111.278 159.879 111.278C156.919 111.278 155.719 109.918 155.719 106.638V88.3981H162.679V77.8381H155.719V64.0781L144.519 65.3581V77.8381H140.759V88.3981H144.519V105.998C144.519 111.038 145.079 113.918 146.519 116.318C148.679 119.998 153.079 122.318 157.879 122.318C159.239 122.318 160.039 122.238 162.119 121.998L163.079 111.038Z" fill="white"/>
</svg>
