<svg width="200" height="200" viewBox="0 0 200 200" fill="none" xmlns="http://www.w3.org/2000/svg">
<path d="M100 200C44.8 200 0 155.2 0 100C0 44.8 44.8 0 100 0C155.2 0 200 44.8 200 100C200 155.2 155.2 200 100 200Z" fill="#BBBBBB"/>
<path d="M42.0747 130.001H55.8447V105.611H71.0547V93.6413H55.8447V78.8812H72.3147V66.2812H42.0747V130.001Z" fill="white"/>
<path d="M79.9556 130.001H110.196V117.401H93.7256V66.2812H79.9556V130.001Z" fill="white"/>
<path d="M116.958 130.001H130.728V103.001H144.138V130.001H157.908V66.2812H144.138V90.4012H130.728V66.2812H116.958V130.001Z" fill="white"/>
</svg>
