<svg width="200" height="200" viewBox="0 0 200 200" fill="none" xmlns="http://www.w3.org/2000/svg">
<path d="M100 200C44.8 200 0 155.2 0 100C0 44.8 44.8 0 100 0C155.2 0 200 44.8 200 100C200 155.2 155.2 200 100 200Z" fill="#BBBBBB"/>
<path d="M31.8701 122H44.1101V97.9997H56.0301V122H68.2701V65.3597H56.0301V86.7997H44.1101V65.3597H31.8701V122Z" fill="white"/>
<path d="M88.4457 122V76.5597L77.2457 77.8397V122H88.4457ZM82.8457 59.6797C79.3257 59.6797 76.5257 62.4797 76.5257 65.9997C76.5257 69.4397 79.4057 72.3197 82.8457 72.3197C86.3657 72.3197 89.1657 69.5197 89.1657 65.9197C89.1657 62.3997 86.3657 59.6797 82.8457 59.6797Z" fill="white"/>
<path d="M117.417 123.76C117.417 130.96 115.897 132.96 110.537 132.96C106.137 132.96 102.537 131.6 97.417 127.92L97.497 139.44C102.777 142.24 107.017 143.36 111.897 143.36C117.177 143.36 121.897 141.12 124.937 137.2C127.657 133.6 128.617 129.28 128.617 120.56V76.5597L117.897 77.8397C115.257 76.8797 113.577 76.5597 111.497 76.5597C101.177 76.5597 94.537 85.9197 94.537 100.48C94.537 114 100.377 123.28 108.937 123.28C111.897 123.28 114.297 122.32 117.417 119.84V123.76ZM116.857 109.76C114.697 111.68 113.257 112.4 111.497 112.4C107.737 112.4 105.737 108.24 105.737 100.4C105.737 91.7597 108.057 87.3597 112.457 87.3597C113.977 87.3597 115.017 87.7597 116.857 88.9597V109.76Z" fill="white"/>
<path d="M148.373 122V100.64C148.373 95.6797 148.693 92.5597 149.413 91.1197C150.453 88.8797 152.453 87.3597 154.453 87.3597C157.093 87.3597 157.973 89.1197 157.973 94.4797V122H169.173V92.0797C169.173 81.3597 166.213 76.5597 159.493 76.5597C155.333 76.5597 152.533 78.1597 148.373 82.7997V64.0797L137.173 65.3597V122H148.373Z" fill="white"/>
</svg>
