<svg width="200" height="200" viewBox="0 0 200 200" fill="none" xmlns="http://www.w3.org/2000/svg">
<path d="M100 200C44.8 200 0 155.2 0 100C0 44.8 44.8 0 100 0C155.2 0 200 44.8 200 100C200 155.2 155.2 200 100 200Z" fill="#BBBBBB"/>
<path d="M54.5557 130.001H68.3257V103.001H81.7357V130.001H95.5057V66.2812H81.7357V90.4012H68.3257V66.2812H54.5557V130.001Z" fill="white"/>
<path d="M105.873 66.2812V103.541C105.873 114.521 107.043 119.471 110.643 124.241C114.063 128.831 120.093 131.711 126.303 131.711C132.693 131.711 138.453 128.741 141.783 123.791C144.933 119.021 145.923 114.161 145.923 103.451V66.2812H132.693V106.331C132.693 115.511 130.983 118.751 126.213 118.751C121.263 118.751 119.643 115.601 119.643 106.061V66.2812H105.873Z" fill="white"/>
</svg>
