<svg width="200" height="200" viewBox="0 0 200 200" fill="none" xmlns="http://www.w3.org/2000/svg">
<path d="M100 200C44.8 200 0 155.2 0 100C0 44.8 44.8 0 100 0C155.2 0 200 44.8 200 100C200 155.2 155.2 200 100 200Z" fill="#BBBBBB"/>
<path d="M44.0967 121.999H70.9767V110.799H56.3367V65.3594H44.0967V121.999Z" fill="white"/>
<path d="M92.1073 76.5594C81.8673 76.5594 74.1073 86.6394 74.1073 99.9994C74.1073 113.199 81.8673 123.279 92.0273 123.279C102.267 123.279 110.107 113.119 110.107 99.9194C110.107 86.6394 102.347 76.5594 92.1073 76.5594ZM92.0273 87.3594C96.3473 87.3594 98.8273 91.9994 98.8273 99.9194C98.8273 107.679 96.2673 112.399 92.1073 112.399C87.7873 112.399 85.3073 107.759 85.3073 99.6794C85.3073 92.0794 87.8673 87.3594 92.0273 87.3594Z" fill="white"/>
<path d="M127.592 123.999L136.072 101.759L144.472 123.999L161.112 77.8394H149.912L143.992 96.9594L135.912 75.8394L128.232 96.9594L121.672 77.8394H109.912L127.592 123.999Z" fill="white"/>
</svg>
