<svg width="200" height="200" viewBox="0 0 200 200" fill="none" xmlns="http://www.w3.org/2000/svg">
<path d="M100 200C44.8 200 0 155.2 0 100C0 44.8 44.8 0 100 0C155.2 0 200 44.8 200 100C200 155.2 155.2 200 100 200Z" fill="#BBBBBB"/>
<path d="M15.6768 122H27.4368L30.6368 100.64L40.4768 124.16L50.3168 100.64L54.3168 122H66.0768L53.7568 63.3597L40.8768 97.4397L27.9968 63.3597L15.6768 122Z" fill="white"/>
<path d="M82.0393 122V76.5597L70.8393 77.8397V122H82.0393ZM76.4393 59.6797C72.9193 59.6797 70.1193 62.4797 70.1193 65.9997C70.1193 69.4397 72.9993 72.3197 76.4393 72.3197C79.9593 72.3197 82.7593 69.5197 82.7593 65.9197C82.7593 62.3997 79.9593 59.6797 76.4393 59.6797Z" fill="white"/>
<path d="M117.091 106.16C113.011 110.8 110.371 112.48 107.171 112.48C102.211 112.48 99.3305 108 99.3305 100.16C99.3305 91.9997 102.451 87.3597 107.891 87.3597C110.931 87.3597 112.851 88.3997 115.811 91.6797L117.091 80.3997C113.651 77.5997 110.851 76.5597 107.011 76.5597C96.2905 76.5597 88.1305 86.9597 88.1305 100.72C88.1305 113.68 95.6505 123.28 105.731 123.28C109.731 123.28 112.691 122.08 116.051 119.12L117.091 106.16Z" fill="white"/>
<path d="M134.299 122V101.84C134.299 93.6797 137.579 88.9597 143.179 88.9597C143.419 88.9597 143.899 88.9597 144.539 89.0397L145.419 76.5597H144.699C140.619 76.5597 136.939 79.3597 134.539 84.3997V76.5597L123.339 77.8397V122H134.299Z" fill="white"/>
<path d="M164.959 76.5597C154.719 76.5597 146.959 86.6397 146.959 99.9997C146.959 113.2 154.719 123.28 164.879 123.28C175.119 123.28 182.959 113.12 182.959 99.9197C182.959 86.6397 175.199 76.5597 164.959 76.5597ZM164.879 87.3597C169.199 87.3597 171.679 91.9997 171.679 99.9197C171.679 107.68 169.119 112.4 164.959 112.4C160.639 112.4 158.159 107.76 158.159 99.6797C158.159 92.0797 160.719 87.3597 164.879 87.3597Z" fill="white"/>
</svg>
