<svg width="200" height="200" viewBox="0 0 200 200" fill="none" xmlns="http://www.w3.org/2000/svg">
<path d="M100 200C44.8 200 0 155.2 0 100C0 44.8 44.8 0 100 0C155.2 0 200 44.8 200 100C200 155.2 155.2 200 100 200Z" fill="#BBBBBB"/>
<path d="M44.8174 122H56.5774L59.7774 100.64L69.6174 124.16L79.4574 100.64L83.4574 122H95.2174L82.8974 63.3597L70.0174 97.4397L57.1374 63.3597L44.8174 122Z" fill="white"/>
<path d="M111.18 122V76.5597L99.9799 77.8397V122H111.18ZM105.58 59.6797C102.06 59.6797 99.2599 62.4797 99.2599 65.9997C99.2599 69.4397 102.14 72.3197 105.58 72.3197C109.1 72.3197 111.9 69.5197 111.9 65.9197C111.9 62.3997 109.1 59.6797 105.58 59.6797Z" fill="white"/>
<path d="M151.351 64.0797L139.591 65.3597V77.8397C137.271 76.8797 135.831 76.5597 133.831 76.5597C123.911 76.5597 117.271 86.1597 117.271 100.48C117.271 114 123.111 123.28 131.671 123.28C134.631 123.28 137.031 122.32 140.151 119.84L140.791 123.28L151.911 122C151.511 118.16 151.351 114.64 151.351 107.44V64.0797ZM139.591 109.76C137.431 111.68 135.991 112.4 134.231 112.4C130.471 112.4 128.471 108.24 128.471 100.4C128.471 91.7597 130.791 87.3597 135.191 87.3597C136.711 87.3597 137.751 87.7597 139.591 88.9597V109.76Z" fill="white"/>
</svg>
