<svg width="200" height="200" viewBox="0 0 200 200" fill="none" xmlns="http://www.w3.org/2000/svg">
<path d="M100 200C44.8 200 0 155.2 0 100C0 44.8 44.8 0 100 0C155.2 0 200 44.8 200 100C200 155.2 155.2 200 100 200Z" fill="#BBBBBB"/>
<path d="M33.6572 130.001H46.8872L50.4872 105.971L61.5572 132.431L72.6272 105.971L77.1272 130.001H90.3572L76.4972 64.0312L62.0072 102.371L47.5172 64.0312L33.6572 130.001Z" fill="white"/>
<path d="M103.095 130.001H116.865V78.8813H129.465V66.2813H90.585V78.8813H103.095V130.001Z" fill="white"/>
<path d="M141.064 130.001H154.834V78.8813H167.434V66.2813H128.554V78.8813H141.064V130.001Z" fill="white"/>
</svg>
