<svg width="200" height="200" viewBox="0 0 200 200" fill="none" xmlns="http://www.w3.org/2000/svg">
<path d="M100 200C44.8 200 0 155.2 0 100C0 44.8 44.8 0 100 0C155.2 0 200 44.8 200 100C200 155.2 155.2 200 100 200Z" fill="#BBBBBB"/>
<path d="M59.2973 64.5703C45.4373 64.5703 34.2773 79.4203 34.2773 97.6903C34.2773 116.95 45.1673 131.71 59.2973 131.71C73.1573 131.71 84.2273 116.86 84.2273 98.1403C84.2273 79.4203 73.2473 64.5703 59.2973 64.5703ZM59.2073 78.0703C65.5973 78.0703 69.8273 86.2603 69.8273 98.4103C69.8273 110.56 65.5973 118.75 59.2973 118.75C52.9073 118.75 48.6773 110.65 48.6773 98.1403C48.6773 86.2603 52.9973 78.0703 59.2073 78.0703Z" fill="white"/>
<path d="M92.3484 130H106.118V105.61H121.328V93.6403H106.118V78.8803H122.588V66.2803H92.3484V130Z" fill="white"/>
<path d="M166.499 69.4303C161.549 66.0103 157.499 64.5703 152.909 64.5703C138.599 64.5703 127.529 79.2403 127.529 98.2303C127.529 116.95 138.599 131.71 152.639 131.71C156.959 131.71 160.919 130.45 165.329 127.57L166.949 112.54C161.459 117.49 159.029 118.75 154.709 118.75C146.879 118.75 141.929 110.74 141.929 98.0503C141.929 85.8103 146.609 78.0703 154.079 78.0703C157.589 78.0703 160.559 79.6903 164.879 83.8303L166.499 69.4303Z" fill="white"/>
</svg>
