<svg width="200" height="200" viewBox="0 0 200 200" fill="none" xmlns="http://www.w3.org/2000/svg">
<path d="M100 200C44.8 200 0 155.2 0 100C0 44.8 44.8 0 100 0C155.2 0 200 44.8 200 100C200 155.2 155.2 200 100 200Z" fill="#BBBBBB"/>
<path d="M39.8335 130H53.6035V109.93C65.8435 109.48 73.3135 101.11 73.3135 87.9703C73.3135 74.0203 65.2135 66.2803 50.5435 66.2803H39.8335V130ZM53.6035 78.8803C57.8335 79.1503 59.9035 82.2103 59.9035 88.0603C59.9035 93.9103 57.8335 96.8803 53.6035 97.2403V78.8803Z" fill="white"/>
<path d="M79.9116 130H110.152V117.4H93.6816V66.2803H79.9116V130Z" fill="white"/>
<path d="M137.915 64.5703C124.055 64.5703 112.895 79.4203 112.895 97.6903C112.895 116.95 123.785 131.71 137.915 131.71C151.775 131.71 162.845 116.86 162.845 98.1403C162.845 79.4203 151.865 64.5703 137.915 64.5703ZM137.825 78.0703C144.215 78.0703 148.445 86.2603 148.445 98.4103C148.445 110.56 144.215 118.75 137.915 118.75C131.525 118.75 127.295 110.65 127.295 98.1403C127.295 86.2603 131.615 78.0703 137.825 78.0703Z" fill="white"/>
</svg>
