<svg width="200" height="200" viewBox="0 0 200 200" fill="none" xmlns="http://www.w3.org/2000/svg">
<path d="M100 200C44.8 200 0 155.2 0 100C0 44.8 44.8 0 100 0C155.2 0 200 44.8 200 100C200 155.2 155.2 200 100 200Z" fill="#BBBBBB"/>
<path d="M49.8613 97.0016H61.3363V80.2766C71.5363 79.9016 77.7613 72.9266 77.7613 61.9766C77.7613 50.3516 71.0113 43.9016 58.7863 43.9016H49.8613V97.0016ZM61.3363 54.4016C64.8613 54.6266 66.5863 57.1766 66.5863 62.0516C66.5863 66.9266 64.8613 69.4016 61.3363 69.7016V54.4016Z" fill="white"/>
<path d="M83.2598 97.0016H108.46V86.5016H94.7348V43.9016H83.2598V97.0016Z" fill="white"/>
<path d="M131.596 42.4766C120.046 42.4766 110.746 54.8516 110.746 70.0766C110.746 86.1266 119.821 98.4266 131.596 98.4266C143.146 98.4266 152.371 86.0516 152.371 70.4516C152.371 54.8516 143.221 42.4766 131.596 42.4766ZM131.521 53.7266C136.846 53.7266 140.371 60.5516 140.371 70.6766C140.371 80.8016 136.846 87.6266 131.596 87.6266C126.271 87.6266 122.746 80.8766 122.746 70.4516C122.746 60.5516 126.346 53.7266 131.521 53.7266Z" fill="white"/>
<path d="M90.4589 113.902L88.0589 142.027C91.9589 140.677 93.2339 140.377 95.3339 140.377C100.734 140.377 103.584 143.452 103.584 149.377C103.584 155.002 101.184 158.152 96.9089 158.152C93.8339 158.152 92.3339 157.327 89.2589 154.102L83.4839 162.127C88.4339 166.927 91.7339 168.427 97.6589 168.427C107.859 168.427 114.609 160.702 114.609 149.077C114.609 138.952 108.834 131.452 100.959 131.452H99.7589L100.434 124.177H109.959L111.234 113.902H90.4589Z" fill="white"/>
</svg>
