<svg width="200" height="200" viewBox="0 0 200 200" fill="none" xmlns="http://www.w3.org/2000/svg">
<path d="M100 200C44.8 200 0 155.2 0 100C0 44.8 44.8 0 100 0C155.2 0 200 44.8 200 100C200 155.2 155.2 200 100 200Z" fill="#BBBBBB"/>
<path d="M49.8613 97.0016H61.3363V80.2766C71.5363 79.9016 77.7613 72.9266 77.7613 61.9766C77.7613 50.3516 71.0113 43.9016 58.7863 43.9016H49.8613V97.0016ZM61.3363 54.4016C64.8613 54.6266 66.5863 57.1766 66.5863 62.0516C66.5863 66.9266 64.8613 69.4016 61.3363 69.7016V54.4016Z" fill="white"/>
<path d="M83.2598 97.0016H108.46V86.5016H94.7348V43.9016H83.2598V97.0016Z" fill="white"/>
<path d="M131.596 42.4766C120.046 42.4766 110.746 54.8516 110.746 70.0766C110.746 86.1266 119.821 98.4266 131.596 98.4266C143.146 98.4266 152.371 86.0516 152.371 70.4516C152.371 54.8516 143.221 42.4766 131.596 42.4766ZM131.521 53.7266C136.846 53.7266 140.371 60.5516 140.371 70.6766C140.371 80.8016 136.846 87.6266 131.596 87.6266C126.271 87.6266 122.746 80.8766 122.746 70.4516C122.746 60.5516 126.346 53.7266 131.521 53.7266Z" fill="white"/>
<path d="M101.409 113.902C99.4589 116.377 96.2339 121.102 93.0839 125.977C86.7089 136.102 84.8339 141.127 84.8339 148.327C84.8339 159.802 91.3589 168.427 99.9839 168.427C108.609 168.427 115.209 160.177 115.209 149.302C115.209 139.402 109.134 131.452 101.634 131.452C101.334 131.452 100.959 131.452 100.434 131.527C103.659 125.602 108.309 118.777 112.434 113.902H101.409ZM99.9839 140.827C102.684 140.827 104.184 143.902 104.184 149.452C104.184 155.002 102.684 158.152 100.059 158.152C97.3589 158.152 95.8589 155.077 95.8589 149.302C95.8589 143.902 97.3589 140.827 99.9839 140.827Z" fill="white"/>
</svg>
