<svg width="200" height="200" viewBox="0 0 200 200" fill="none" xmlns="http://www.w3.org/2000/svg">
<path d="M100 200C44.8 200 0 155.2 0 100C0 44.8 44.8 0 100 0C155.2 0 200 44.8 200 100C200 155.2 155.2 200 100 200Z" fill="#BBBBBB"/>
<path d="M49.8613 91.0016H61.3363V74.2766C71.5363 73.9016 77.7613 66.9266 77.7613 55.9766C77.7613 44.3516 71.0113 37.9016 58.7863 37.9016H49.8613V91.0016ZM61.3363 48.4016C64.8613 48.6266 66.5863 51.1766 66.5863 56.0516C66.5863 60.9266 64.8613 63.4016 61.3363 63.7016V48.4016Z" fill="white"/>
<path d="M83.2598 91.0016H108.46V80.5016H94.7348V37.9016H83.2598V91.0016Z" fill="white"/>
<path d="M131.596 36.4766C120.046 36.4766 110.746 48.8516 110.746 64.0766C110.746 80.1266 119.821 92.4266 131.596 92.4266C143.146 92.4266 152.371 80.0516 152.371 64.4516C152.371 48.8516 143.221 36.4766 131.596 36.4766ZM131.521 47.7266C136.846 47.7266 140.371 54.5516 140.371 64.6766C140.371 74.8016 136.846 81.6266 131.596 81.6266C126.271 81.6266 122.746 74.8766 122.746 64.4516C122.746 54.5516 126.346 47.7266 131.521 47.7266Z" fill="white"/>
<path d="M56.0503 161.002H67.5253V138.502H78.7003V161.002H90.1753V107.902H78.7003V128.002H67.5253V107.902H56.0503V161.002Z" fill="white"/>
<path d="M107.44 107.902L94.9149 161.002H104.89L117.415 107.902H107.44Z" fill="white"/>
<path d="M122.115 161.002H147.315V150.502H133.59V107.902H122.115V161.002Z" fill="white"/>
</svg>
