<svg width="200" height="200" viewBox="0 0 200 200" fill="none" xmlns="http://www.w3.org/2000/svg">
<path d="M100 200C44.8 200 0 155.2 0 100C0 44.8 44.8 0 100 0C155.2 0 200 44.8 200 100C200 155.2 155.2 200 100 200Z" fill="#BBBBBB"/>
<path d="M33.042 121.999H45.282V101.199H45.842L53.842 121.999H67.042L56.962 97.6794C61.282 94.1594 63.202 89.7594 63.202 83.4394C63.202 77.5194 60.882 72.2394 56.802 68.9594C53.362 66.3194 49.602 65.3594 42.162 65.3594H33.042V121.999ZM45.282 76.5594C49.202 76.8794 50.882 79.0394 50.882 83.6794C50.882 88.3194 49.202 90.4794 45.282 90.7994V76.5594Z" fill="white"/>
<path d="M102.914 76.5594L92.1939 77.8394C89.5539 76.8794 87.8739 76.5594 85.7939 76.5594C75.4739 76.5594 68.8339 85.9194 68.8339 100.479C68.8339 113.999 74.6739 123.279 83.2339 123.279C86.1939 123.279 88.5939 122.319 91.7139 119.839L92.3539 123.279L103.474 121.999C103.074 118.159 102.914 114.639 102.914 107.439V76.5594ZM91.1539 109.759C88.9939 111.679 87.5539 112.399 85.7939 112.399C82.0339 112.399 80.0339 108.239 80.0339 100.399C80.0339 91.7594 82.3539 87.3594 86.7539 87.3594C88.2739 87.3594 89.3139 87.7594 91.1539 88.9594V109.759Z" fill="white"/>
<path d="M106.67 121.999H137.55L138.91 111.359H123.71L139.39 77.8394H110.67L108.67 88.3994H122.43L106.67 121.999Z" fill="white"/>
<path d="M139.014 121.999H169.894L171.254 111.359H156.054L171.734 77.8394H143.014L141.014 88.3994H154.774L139.014 121.999Z" fill="white"/>
</svg>
