<svg width="200" height="200" viewBox="0 0 200 200" fill="none" xmlns="http://www.w3.org/2000/svg">
<path d="M100 200C44.8 200 0 155.2 0 100C0 44.8 44.8 0 100 0C155.2 0 200 44.8 200 100C200 155.2 155.2 200 100 200Z" fill="#BBBBBB"/>
<path d="M61.9682 68.2612C58.0982 65.8312 54.2282 64.5712 50.1782 64.5712C40.6382 64.5712 33.6182 72.3113 33.6182 82.9313C33.6182 90.4913 36.1382 95.0813 43.1582 100.571L47.4782 103.901C50.5382 106.241 52.2482 109.211 52.2482 112.361C52.2482 116.321 49.9082 118.751 46.0382 118.751C42.6182 118.751 38.7482 117.311 33.7982 114.071L35.3282 128.471C41.2682 130.901 44.5082 131.711 48.2882 131.711C58.8182 131.711 66.1982 123.791 66.1982 112.361C66.1982 104.171 63.4082 99.6713 53.8682 92.1112L50.3582 89.4112C48.2882 87.7913 47.2982 85.9013 47.2982 83.5613C47.2982 80.2313 49.4582 78.0713 52.8782 78.0713C55.2182 78.0713 58.0082 79.2413 61.9682 82.0312V68.2612Z" fill="white"/>
<path d="M73.8475 130.001H87.6175V100.571L114.797 132.431V66.2813H101.027V95.7113L73.8475 64.0312V130.001Z" fill="white"/>
<path d="M162.421 69.4312C157.561 65.9213 153.601 64.5712 148.741 64.5712C133.891 64.5712 123.091 78.7013 123.091 98.2313C123.091 116.771 134.161 131.711 147.931 131.711C153.871 131.711 158.551 129.551 165.931 123.431V94.9013H145.771V106.871H152.431V117.131C150.541 118.391 149.551 118.751 147.931 118.751C141.631 118.751 137.491 110.561 137.491 98.3213C137.491 85.9013 142.261 78.1612 149.821 78.1612C153.511 78.1612 156.841 79.8713 160.351 83.6513L162.421 69.4312Z" fill="white"/>
</svg>
