<svg width="200" height="200" viewBox="0 0 200 200" fill="none" xmlns="http://www.w3.org/2000/svg">
<path d="M100 200C44.8 200 0 155.2 0 100C0 44.8 44.8 0 100 0C155.2 0 200 44.8 200 100C200 155.2 155.2 200 100 200Z" fill="#BBBBBB"/>
<path d="M45.8816 67.1197C42.4416 64.9597 39.0016 63.8397 35.4016 63.8397C26.9216 63.8397 20.6816 70.7197 20.6816 80.1597C20.6816 86.8797 22.9216 90.9597 29.1616 95.8397L33.0016 98.7997C35.7216 100.88 37.2416 103.52 37.2416 106.32C37.2416 109.84 35.1616 112 31.7216 112C28.6816 112 25.2416 110.72 20.8416 107.84L22.2016 120.64C27.4816 122.8 30.3616 123.52 33.7216 123.52C43.0816 123.52 49.6416 116.48 49.6416 106.32C49.6416 99.0397 47.1616 95.0397 38.6816 88.3197L35.5616 85.9197C33.7216 84.4797 32.8416 82.7997 32.8416 80.7197C32.8416 77.7597 34.7616 75.8397 37.8016 75.8397C39.8816 75.8397 42.3616 76.8797 45.8816 79.3597V67.1197Z" fill="white"/>
<path d="M55.721 137.2L67.481 136V122C69.801 122.96 71.241 123.28 73.161 123.28C83.161 123.28 89.801 113.68 89.801 99.4397C89.801 85.7597 83.961 76.5597 75.321 76.5597C72.441 76.5597 70.121 77.4397 66.921 79.9197L66.281 76.5597L55.241 77.8397C55.561 81.6797 55.721 85.1997 55.721 92.3997V137.2ZM67.481 90.0797C69.641 88.1597 71.081 87.4397 72.841 87.4397C76.601 87.4397 78.601 91.5997 78.601 99.4397C78.601 108.08 76.361 112.48 71.881 112.48C70.361 112.48 69.321 112.08 67.481 110.88V90.0797Z" fill="white"/>
<path d="M107.157 122V76.5597L95.9573 77.8397V122H107.157ZM101.557 59.6797C98.0373 59.6797 95.2373 62.4797 95.2373 65.9997C95.2373 69.4397 98.1173 72.3197 101.557 72.3197C105.077 72.3197 107.877 69.5197 107.877 65.9197C107.877 62.3997 105.077 59.6797 101.557 59.6797Z" fill="white"/>
<path d="M126.689 122V100.64C126.689 95.6797 127.009 92.5597 127.729 91.1197C128.769 88.8797 130.769 87.3597 132.769 87.3597C135.409 87.3597 136.289 89.1197 136.289 94.4797V122H147.489V92.0797C147.489 81.3597 144.529 76.5597 137.809 76.5597C133.649 76.5597 130.769 78.1597 126.689 82.7997V76.5597L115.489 77.8397V122H126.689Z" fill="white"/>
<path d="M155.01 119.76C158.69 122.4 162.13 123.52 166.21 123.52C174.05 123.52 179.49 117.6 179.49 109.2C179.49 103.68 177.41 100.24 172.05 96.7997L169.25 95.0397C166.45 93.1997 165.89 92.4797 165.89 90.6397C165.89 88.3997 167.41 86.8797 169.65 86.8797C171.49 86.8797 173.25 87.5997 176.13 89.5197V78.8797C172.53 76.9597 170.53 76.3197 167.73 76.3197C160.13 76.3197 154.69 82.1597 154.69 90.2397C154.69 95.3597 156.53 98.4797 161.33 101.52L164.85 103.76C167.49 105.44 168.29 106.56 168.29 108.72C168.29 111.28 166.69 112.96 164.13 112.96C161.57 112.96 158.85 111.6 154.45 108.16L155.01 119.76Z" fill="white"/>
</svg>
