<svg width="200" height="200" viewBox="0 0 200 200" fill="none" xmlns="http://www.w3.org/2000/svg">
<path d="M100 200C44.8 200 0 155.2 0 100C0 44.8 44.8 0 100 0C155.2 0 200 44.8 200 100C200 155.2 155.2 200 100 200Z" fill="#BBBBBB"/>
<path d="M59.0066 67.1198C55.5666 64.9598 52.1266 63.8398 48.5266 63.8398C40.0466 63.8398 33.8066 70.7198 33.8066 80.1598C33.8066 86.8798 36.0466 90.9598 42.2866 95.8398L46.1266 98.7998C48.8466 100.88 50.3666 103.52 50.3666 106.32C50.3666 109.84 48.2866 112 44.8466 112C41.8066 112 38.3666 110.72 33.9666 107.84L35.3266 120.64C40.6066 122.8 43.4866 123.52 46.8466 123.52C56.2066 123.52 62.7666 116.48 62.7666 106.32C62.7666 99.0398 60.2866 95.0398 51.8066 88.3198L48.6866 85.9198C46.8466 84.4798 45.9666 82.7998 45.9666 80.7198C45.9666 77.7598 47.8866 75.8398 50.9266 75.8398C53.0066 75.8398 55.4866 76.8798 59.0066 79.3598V67.1198Z" fill="white"/>
<path d="M87.806 111.04C86.286 111.2 85.646 111.28 84.606 111.28C81.646 111.28 80.446 109.92 80.446 106.64V88.3998H87.406V77.8398H80.446V64.0798L69.246 65.3598V77.8398H65.486V88.3998H69.246V106C69.246 111.04 69.806 113.92 71.246 116.32C73.406 120 77.806 122.32 82.606 122.32C83.966 122.32 84.766 122.24 86.846 122L87.806 111.04Z" fill="white"/>
<path d="M112.842 77.8398V99.1998C112.842 104.08 112.522 107.28 111.802 108.72C110.762 110.96 108.762 112.48 106.762 112.48C104.122 112.48 103.242 110.72 103.242 105.36V76.5598L92.0416 77.8398V107.76C92.0416 118.48 95.0816 123.28 101.722 123.28C105.882 123.28 108.682 121.68 112.842 117.04V123.28L124.042 122V76.5598L112.842 77.8398Z" fill="white"/>
<path d="M164.204 64.0798L152.444 65.3598V77.8398C150.124 76.8798 148.684 76.5598 146.684 76.5598C136.764 76.5598 130.124 86.1598 130.124 100.48C130.124 114 135.964 123.28 144.524 123.28C147.484 123.28 149.884 122.32 153.004 119.84L153.644 123.28L164.764 122C164.364 118.16 164.204 114.64 164.204 107.44V64.0798ZM152.444 109.76C150.284 111.68 148.844 112.4 147.084 112.4C143.324 112.4 141.324 108.24 141.324 100.4C141.324 91.7598 143.644 87.3598 148.044 87.3598C149.564 87.3598 150.604 87.7598 152.444 88.9598V109.76Z" fill="white"/>
</svg>
