<svg enable-background="new 0 0 210 60" viewBox="0 0 210 60" xmlns="http://www.w3.org/2000/svg"><path d="m43.73 30.06c0-1.34.13-2.64.37-3.91h-9.51l-5.79 7.5h9.2s.3.01.6.06c1.72.2 3.07 1.67 3.07 3.43 0 1.75-1.31 3.21-3.07 3.42h-5.46c-5.91 0-10.71-4.63-10.71-10.54 0-.78.08-1.54.25-2.29.12-.52.58-2.21 1.5-3.66 1.87-2.93 5.2-4.82 8.93-4.82h6.16s0-.01.01-.01h4.38l5.8-7.65h-2.42-14.17-.09c-10.11-.01-18.35 8.24-18.35 18.39s8.23 18.4 18.36 18.4h.08 5.25 7.11c2.12 0 3.84-1.68 3.84-3.8v-.66c-3.32-3.68-5.34-8.55-5.34-13.86z" fill="#fff"/><path d="m76.61 19.23 5.79-7.64h-17.56-.09c-6.11 0-11.52 3.01-14.86 7.64z" fill="#cd181f"/><g fill="#fff"><path d="m77.2 26.17h-10.98l-5.79 7.5h9.53s.3.01.6.06c1.72.2 3.07 1.67 3.07 3.43 0 1.75-1.31 3.21-3.07 3.42h-5.46c-5.91 0-10.71-4.63-10.71-10.54 0-.78.08-1.54.25-2.29.06-.3.24-.95.53-1.72h-8.35c-.28 1.28-.43 2.61-.43 3.97 0 10.15 8.23 18.4 18.36 18.4h.08 5.25 7.11c2.12 0 3.84-1.68 3.84-3.8v-14.57c.01-2.12-1.71-3.86-3.83-3.86z"/><path d="m155.96 37.6c1.14 2.1 2.73 2.95 4.81 2.98 2.98.02 5.98.02 8.95.05h1.79c0 1.4-.02 2.76-.02 4.19-.34.02-.68.07-1.04.07-3.27 0-6.53-.02-9.8-.05-5.11-.05-9.19-3.85-9.41-8.66-.24-5.25 3.39-9.53 8.66-9.85 3.85-.22 7.72 0 11.69.02 0 1.4-.02 2.73-.02 4.26-.75 0-1.5 0-2.25 0-2.86-.02-5.73-.05-8.59-.05-2.01 0-3.53.85-4.72 2.76 5.27.02 10.35.05 15.53.07 0 1.48-.02 2.81-.02 4.33-5.11-.05-10.23-.07-15.56-.12z"/><path d="m188.82 40.12c2.42 1.67 4.57 3.14 6.75 4.65-.02.07-.05.15-.07.24-1.91 0-3.82 0-5.73-.05-.29 0-.58-.27-.82-.46-2.44-1.69-4.86-3.41-7.31-5.13-.65-.46-1.23-.94-.97-1.86.27-.97 1.04-1.11 1.91-1.09 1.81.02 3.63.05 5.44.02 1.94 0 3.29-1.28 3.32-3.1.02-1.86-1.33-3.17-3.32-3.17-3.31-.02-6.6-.05-10.04-.05-.02 4.91-.05 9.75-.07 14.71-1.35 0-2.56-.02-3.87-.02.02-6.12.07-12.22.1-18.39.27-.02.53-.1.82-.1 4.4.02 8.78 0 13.19.07 5.35.1 8.56 5.23 6.27 9.94-.94 1.94-2.44 3.15-4.6 3.56-.28.03-.52.11-1 .23z"/><path d="m93.28 39.54c0-1.23.02-2.35.02-3.58 2.83.02 5.59.05 8.35.02 2.56-.02 4.11-2.69 2.73-4.77-.46-.65-1.35-1.38-2.08-1.4-3.58-.17-7.16-.1-10.86-.12-.02 4.94-.05 9.8-.07 14.73-1.33 0-2.52-.02-3.82-.02.02-6.15.07-12.27.1-18.56h2.2c3.94.02 7.89 0 11.86.07 5.54.12 8.73 5.85 5.9 10.55-1.11 1.86-2.76 3.02-4.91 3.1-3.11.12-6.21 0-9.42-.02z"/><path d="m110.36 35.66c.05-5.71 4.65-10.23 10.36-10.21s10.26 4.65 10.23 10.35c-.05 5.69-4.67 10.26-10.36 10.23-5.71-.04-10.26-4.66-10.23-10.37zm16.91.1c0-3.6-3.02-6.63-6.63-6.63-3.63.02-6.63 3.05-6.6 6.65.02 3.56 3 6.53 6.56 6.56 3.6.02 6.67-3 6.67-6.58z"/><path d="m153.08 44.71c-1.67 0-3.36 0-5.03-.05-.31 0-.68-.24-.94-.46-2.78-2.27-5.54-4.55-8.3-6.85-1.35-1.14-1.4-2.83-.02-3.97 2.78-2.32 5.61-4.57 8.44-6.82.27-.22.65-.36.97-.39 1.64-.02 3.29 0 4.94 0 .1.12.22.27.31.39-.29.12-.6.19-.85.39-2.98 2.4-5.95 4.81-8.9 7.23-1.19.97-1.19 1.38-.02 2.35 3.14 2.64 6.29 5.25 9.44 7.89-.01.1-.04.2-.04.29z"/><path d="m136.75 44.66c-1.26 0-2.47-.02-3.73-.02.02-6.17.07-12.32.1-18.48 1.26 0 2.47.02 3.73.02-.02 6.19-.05 12.31-.1 18.48z"/></g></svg>