<svg width="10" height="10" fill="none" xmlns="http://www.w3.org/2000/svg"><path fill-rule="evenodd" clip-rule="evenodd" d="M9.835 8.37a.351.351 0 0 1 .102.25.344.344 0 0 1-.102.25l-.965.97a.348.348 0 0 1-.25.102.359.359 0 0 1-.25-.103L5 6.464l-3.366 3.38a.34.34 0 0 1-.25.103.359.359 0 0 1-.25-.103L.17 8.875a.351.351 0 0 1-.103-.25c0-.094.036-.187.103-.25l3.38-3.393L.16 1.634a.358.358 0 0 1 0-.504l.965-.97a.351.351 0 0 1 .25-.102.35.35 0 0 1 .25.103l3.38 3.335L8.383.16a.351.351 0 0 1 .25-.103.35.35 0 0 1 .25.103l.964.969a.358.358 0 0 1 0 .504L6.46 4.982l3.375 3.389z" fill="#fff"/></svg>