<svg width="12" height="10" fill="none" xmlns="http://www.w3.org/2000/svg"><path fill-rule="evenodd" clip-rule="evenodd" d="M11.13 1.656 4.92 9.625c-.05.05-.13.156-.228.156-.103 0-.17-.071-.228-.13L.942 6.264l-.067-.067a.262.262 0 0 1-.05-.142.26.26 0 0 1 .05-.143A371.039 371.039 0 0 1 2.009 4.72c.058-.058.107-.134.214-.134.112 0 .183.094.237.147.053.054 2.009 1.933 2.009 1.933L9.438.281A.255.255 0 0 1 9.594.22a.25.25 0 0 1 .156.058l1.366 1.076a.25.25 0 0 1 .058.156.231.231 0 0 1-.044.147z" fill="#fff"/></svg>