<svg fill="none" height="20" width="20" xmlns="http://www.w3.org/2000/svg"><g fill="#008be2" opacity=".7"><path d="M18.438 14.55V2.343H14.98v-.586A1.76 1.76 0 0 0 13.223 0H6.777A1.76 1.76 0 0 0 5.02 1.758v.586H1.563v12.205L0 16.893V20h20v-3.107l-1.563-2.344zM6.19 1.757c0-.323.263-.586.586-.586h6.446c.323 0 .586.263.586.586v9.453a.588.588 0 0 1-.586.586H6.777a.587.587 0 0 1-.586-.586V1.758zM2.734 3.516H5.02v7.695c0 .97.788 1.758 1.757 1.758h6.446a1.76 1.76 0 0 0 1.757-1.758V3.516h2.286V14.14H2.734zm-.272 11.796h15.076l.781 1.172H1.681zm5.194 3.516H1.172v-1.172h6.484zm3.516 0H8.828v-1.172h2.344zm7.656 0h-6.484v-1.172h6.484z"/><path d="M12.057 6.06A9.419 9.419 0 0 1 10.513 4L10 3.078l-.512.924a9.422 9.422 0 0 1-1.545 2.06l-.408.412.41.412a9.42 9.42 0 0 1 1.543 2.06l.512.923.513-.924a9.419 9.419 0 0 1 1.544-2.06l.41-.411-.41-.413zM10 7.545a10.587 10.587 0 0 0-.837-1.072c.302-.34.582-.698.837-1.073.256.375.536.733.838 1.073-.302.339-.582.697-.838 1.072z" opacity=".7"/></g></svg>